<svg width="26" height="25" viewBox="0 0 26 25" fill="none" xmlns="http://www.w3.org/2000/svg">
<path d="M5.00978 19.3541C5.00978 19.9635 4.51584 20.4574 3.90653 20.4574L3.73254 20.4574C3.12323 20.4574 2.62929 19.9635 2.62929 19.3541L2.6293 5.19479C2.6293 4.58548 3.12324 4.09154 3.73254 4.09154L3.90653 4.09154C4.51584 4.09154 5.00978 4.58548 5.00978 5.19479L5.00978 19.3541Z" fill="#191414"/>
<path d="M5.00978 19.3541C5.00978 19.9635 4.51584 20.4574 3.90653 20.4574L3.73254 20.4574C3.12323 20.4574 2.62929 19.9635 2.62929 19.3541L2.6293 5.19479C2.6293 4.58548 3.12324 4.09154 3.73254 4.09154L3.90653 4.09154C4.51584 4.09154 5.00978 4.58548 5.00978 5.19479L5.00978 19.3541Z" fill="#191414"/>
<path d="M6.16832 10.9754L15.5799 5.54162C16.5799 4.96427 17.8299 5.68596 17.8299 6.84066L17.8299 17.7082C17.8299 18.8629 16.5799 19.5846 15.5799 19.0073L6.16832 13.5735C5.16832 12.9961 5.16832 11.5528 6.16832 10.9754Z" stroke="#191414" stroke-width="3"/>
<path d="M6.16832 10.9754L15.5799 5.54162C16.5799 4.96427 17.8299 5.68596 17.8299 6.84066L17.8299 17.7082C17.8299 18.8629 16.5799 19.5846 15.5799 19.0073L6.16832 13.5735C5.16832 12.9961 5.16832 11.5528 6.16832 10.9754Z" stroke="#191414" stroke-width="3"/>
</svg>
