<svg width="25" height="25" viewBox="0 0 25 25" fill="none" xmlns="http://www.w3.org/2000/svg">
<path d="M20.5768 5.19468C20.5768 4.58537 21.0708 4.09143 21.6801 4.09143H21.8541C22.4634 4.09143 22.9573 4.58537 22.9573 5.19468V19.354C22.9573 19.9633 22.4634 20.4573 21.8541 20.4573H21.6801C21.0708 20.4573 20.5768 19.9633 20.5768 19.354V5.19468Z" fill="#191414"/>
<path d="M20.5768 5.19468C20.5768 4.58537 21.0708 4.09143 21.6801 4.09143H21.8541C22.4634 4.09143 22.9573 4.58537 22.9573 5.19468V19.354C22.9573 19.9633 22.4634 20.4573 21.8541 20.4573H21.6801C21.0708 20.4573 20.5768 19.9633 20.5768 19.354V5.19468Z" fill="#191414"/>
<path d="M19.4183 13.5734L10.0067 19.0072C9.00669 19.5846 7.75669 18.8629 7.75669 17.7082L7.75669 6.8406C7.75669 5.68591 9.00669 4.96422 10.0067 5.54157L19.4183 10.9754C20.4183 11.5527 20.4183 12.9961 19.4183 13.5734Z" stroke="#191414" stroke-width="3"/>
<path d="M19.4183 13.5734L10.0067 19.0072C9.00669 19.5846 7.75669 18.8629 7.75669 17.7082L7.75669 6.8406C7.75669 5.68591 9.00669 4.96422 10.0067 5.54157L19.4183 10.9754C20.4183 11.5527 20.4183 12.9961 19.4183 13.5734Z" stroke="#191414" stroke-width="3"/>
</svg>
