<svg width="22" height="18" viewBox="0 0 22 18" fill="none" xmlns="http://www.w3.org/2000/svg">
<path d="M1 9.81189C1 5.83909 4.25611 2.6185 8.27273 2.6185H14.0909M21 8.19338C21 12.1662 17.7439 15.3868 13.7273 15.3868H7.90909M15.6337 4.0519L17.1765 2.52595L15.6337 1M6.17914 13.9481L4.63636 15.4741L6.17914 17" stroke="#191414" stroke-width="2" stroke-linecap="round" stroke-linejoin="round"/>
<path d="M1 9.81189C1 5.83909 4.25611 2.6185 8.27273 2.6185H14.0909M21 8.19338C21 12.1662 17.7439 15.3868 13.7273 15.3868H7.90909M15.6337 4.0519L17.1765 2.52595L15.6337 1M6.17914 13.9481L4.63636 15.4741L6.17914 17" stroke="#191414" stroke-width="2" stroke-linecap="round" stroke-linejoin="round"/>
</svg>
