<svg width="22" height="16" viewBox="0 0 22 16" fill="none" xmlns="http://www.w3.org/2000/svg">
<path d="M20 3.06395L20.8765 3.95513C21.1154 3.72014 21.25 3.39906 21.25 3.06395C21.25 2.72884 21.1154 2.40776 20.8765 2.17277L20 3.06395ZM18.0417 3.23672C17.5496 3.72082 17.543 4.51224 18.0271 5.00443C18.5112 5.49661 19.3026 5.50317 19.7948 5.01908L18.0417 3.23672ZM19.7948 1.10882C19.3026 0.624729 18.5112 0.631288 18.0271 1.12347C17.543 1.61566 17.5496 2.40708 18.0417 2.89118L19.7948 1.10882ZM19.9821 12.9448L20.8587 13.836C21.0976 13.601 21.2321 13.2799 21.2321 12.9448C21.2321 12.6097 21.0976 12.2886 20.8587 12.0537L19.9821 12.9448ZM18.0328 13.1088C17.5406 13.5929 17.5341 14.3843 18.0182 14.8765C18.5023 15.3687 19.2937 15.3753 19.7859 14.8912L18.0328 13.1088ZM19.7859 10.9985C19.2937 10.5144 18.5023 10.5209 18.0182 11.0131C17.5341 11.5053 17.5406 12.2967 18.0328 12.7808L19.7859 10.9985ZM2 1.9862C1.30964 1.9862 0.75 2.54585 0.75 3.2362C0.75 3.92656 1.30964 4.4862 2 4.4862V1.9862ZM18.0727 14.2522C18.7631 14.2605 19.3294 13.7077 19.3378 13.0174C19.3462 12.3271 18.7934 11.7607 18.1031 11.7523L18.0727 14.2522ZM18.0879 4.36258C18.7783 4.36258 19.3379 3.80294 19.3379 3.11258C19.3379 2.42223 18.7783 1.86258 18.0879 1.86258V4.36258ZM2 11.8759C1.30964 11.8759 0.75 12.4355 0.75 13.1259C0.75 13.8162 1.30964 14.3759 2 14.3759V11.8759ZM19.1235 2.17277L18.0417 3.23672L19.7948 5.01908L20.8765 3.95513L19.1235 2.17277ZM18.0417 2.89118L19.1235 3.95513L20.8765 2.17277L19.7948 1.10882L18.0417 2.89118ZM19.1056 12.0537L18.0328 13.1088L19.7859 14.8912L20.8587 13.836L19.1056 12.0537ZM18.0328 12.7808L19.1056 13.836L20.8587 12.0537L19.7859 10.9985L18.0328 12.7808ZM2 4.4862C2.95268 4.4862 4.03471 4.93045 5.30191 5.79393C6.56004 6.65122 7.8425 7.8083 9.20929 9.04346L10.8855 7.18863C9.5517 5.9833 8.13687 4.70047 6.70966 3.72796C5.29152 2.76164 3.70014 1.9862 2 1.9862V4.4862ZM9.20929 9.04346C10.5364 10.2428 11.9459 11.5183 13.3716 12.4899C14.7888 13.4557 16.376 14.2316 18.0727 14.2522L18.1031 11.7523C17.1358 11.7406 16.0452 11.2866 14.7794 10.424C13.5221 9.56709 12.2433 8.41569 10.8855 7.18863L9.20929 9.04346ZM18.0879 1.86258C16.3823 1.86258 14.7875 2.66214 13.3719 3.65137C11.9452 4.64841 10.5305 5.96322 9.19742 7.1995L10.8974 9.03258C12.2625 7.7666 13.546 6.57968 14.804 5.70056C16.0732 4.81363 17.1494 4.36258 18.0879 4.36258V1.86258ZM9.19742 7.1995C7.83096 8.4667 6.54628 9.65519 5.28705 10.5357C4.01661 11.424 2.93931 11.8759 2 11.8759V14.3759C3.70697 14.3759 5.30311 13.575 6.71965 12.5845C8.1474 11.5862 9.56327 10.2698 10.8974 9.03258L9.19742 7.1995Z" fill="#191414"/>
<path d="M20 3.06395L20.8765 3.95513C21.1154 3.72014 21.25 3.39906 21.25 3.06395C21.25 2.72884 21.1154 2.40776 20.8765 2.17277L20 3.06395ZM18.0417 3.23672C17.5496 3.72082 17.543 4.51224 18.0271 5.00443C18.5112 5.49661 19.3026 5.50317 19.7948 5.01908L18.0417 3.23672ZM19.7948 1.10882C19.3026 0.624729 18.5112 0.631288 18.0271 1.12347C17.543 1.61566 17.5496 2.40708 18.0417 2.89118L19.7948 1.10882ZM19.9821 12.9448L20.8587 13.836C21.0976 13.601 21.2321 13.2799 21.2321 12.9448C21.2321 12.6097 21.0976 12.2886 20.8587 12.0537L19.9821 12.9448ZM18.0328 13.1088C17.5406 13.5929 17.5341 14.3843 18.0182 14.8765C18.5023 15.3687 19.2937 15.3753 19.7859 14.8912L18.0328 13.1088ZM19.7859 10.9985C19.2937 10.5144 18.5023 10.5209 18.0182 11.0131C17.5341 11.5053 17.5406 12.2967 18.0328 12.7808L19.7859 10.9985ZM2 1.9862C1.30964 1.9862 0.75 2.54585 0.75 3.2362C0.75 3.92656 1.30964 4.4862 2 4.4862V1.9862ZM18.0727 14.2522C18.7631 14.2605 19.3294 13.7077 19.3378 13.0174C19.3462 12.3271 18.7934 11.7607 18.1031 11.7523L18.0727 14.2522ZM18.0879 4.36258C18.7783 4.36258 19.3379 3.80294 19.3379 3.11258C19.3379 2.42223 18.7783 1.86258 18.0879 1.86258V4.36258ZM2 11.8759C1.30964 11.8759 0.75 12.4355 0.75 13.1259C0.75 13.8162 1.30964 14.3759 2 14.3759V11.8759ZM19.1235 2.17277L18.0417 3.23672L19.7948 5.01908L20.8765 3.95513L19.1235 2.17277ZM18.0417 2.89118L19.1235 3.95513L20.8765 2.17277L19.7948 1.10882L18.0417 2.89118ZM19.1056 12.0537L18.0328 13.1088L19.7859 14.8912L20.8587 13.836L19.1056 12.0537ZM18.0328 12.7808L19.1056 13.836L20.8587 12.0537L19.7859 10.9985L18.0328 12.7808ZM2 4.4862C2.95268 4.4862 4.03471 4.93045 5.30191 5.79393C6.56004 6.65122 7.8425 7.8083 9.20929 9.04346L10.8855 7.18863C9.5517 5.9833 8.13687 4.70047 6.70966 3.72796C5.29152 2.76164 3.70014 1.9862 2 1.9862V4.4862ZM9.20929 9.04346C10.5364 10.2428 11.9459 11.5183 13.3716 12.4899C14.7888 13.4557 16.376 14.2316 18.0727 14.2522L18.1031 11.7523C17.1358 11.7406 16.0452 11.2866 14.7794 10.424C13.5221 9.56709 12.2433 8.41569 10.8855 7.18863L9.20929 9.04346ZM18.0879 1.86258C16.3823 1.86258 14.7875 2.66214 13.3719 3.65137C11.9452 4.64841 10.5305 5.96322 9.19742 7.1995L10.8974 9.03258C12.2625 7.7666 13.546 6.57968 14.804 5.70056C16.0732 4.81363 17.1494 4.36258 18.0879 4.36258V1.86258ZM9.19742 7.1995C7.83096 8.4667 6.54628 9.65519 5.28705 10.5357C4.01661 11.424 2.93931 11.8759 2 11.8759V14.3759C3.70697 14.3759 5.30311 13.575 6.71965 12.5845C8.1474 11.5862 9.56327 10.2698 10.8974 9.03258L9.19742 7.1995Z" fill="#F1F1F1"/>
<path d="M20 3.06395L20.8765 3.95513C21.1154 3.72014 21.25 3.39906 21.25 3.06395C21.25 2.72884 21.1154 2.40776 20.8765 2.17277L20 3.06395ZM18.0417 3.23672C17.5496 3.72082 17.543 4.51224 18.0271 5.00443C18.5112 5.49661 19.3026 5.50317 19.7948 5.01908L18.0417 3.23672ZM19.7948 1.10882C19.3026 0.624729 18.5112 0.631288 18.0271 1.12347C17.543 1.61566 17.5496 2.40708 18.0417 2.89118L19.7948 1.10882ZM19.9821 12.9448L20.8587 13.836C21.0976 13.601 21.2321 13.2799 21.2321 12.9448C21.2321 12.6097 21.0976 12.2886 20.8587 12.0537L19.9821 12.9448ZM18.0328 13.1088C17.5406 13.5929 17.5341 14.3843 18.0182 14.8765C18.5023 15.3687 19.2937 15.3753 19.7859 14.8912L18.0328 13.1088ZM19.7859 10.9985C19.2937 10.5144 18.5023 10.5209 18.0182 11.0131C17.5341 11.5053 17.5406 12.2967 18.0328 12.7808L19.7859 10.9985ZM2 1.9862C1.30964 1.9862 0.75 2.54585 0.75 3.2362C0.75 3.92656 1.30964 4.4862 2 4.4862V1.9862ZM18.0727 14.2522C18.7631 14.2605 19.3294 13.7077 19.3378 13.0174C19.3462 12.3271 18.7934 11.7607 18.1031 11.7523L18.0727 14.2522ZM18.0879 4.36258C18.7783 4.36258 19.3379 3.80294 19.3379 3.11258C19.3379 2.42223 18.7783 1.86258 18.0879 1.86258V4.36258ZM2 11.8759C1.30964 11.8759 0.75 12.4355 0.75 13.1259C0.75 13.8162 1.30964 14.3759 2 14.3759V11.8759ZM19.1235 2.17277L18.0417 3.23672L19.7948 5.01908L20.8765 3.95513L19.1235 2.17277ZM18.0417 2.89118L19.1235 3.95513L20.8765 2.17277L19.7948 1.10882L18.0417 2.89118ZM19.1056 12.0537L18.0328 13.1088L19.7859 14.8912L20.8587 13.836L19.1056 12.0537ZM18.0328 12.7808L19.1056 13.836L20.8587 12.0537L19.7859 10.9985L18.0328 12.7808ZM2 4.4862C2.95268 4.4862 4.03471 4.93045 5.30191 5.79393C6.56004 6.65122 7.8425 7.8083 9.20929 9.04346L10.8855 7.18863C9.5517 5.9833 8.13687 4.70047 6.70966 3.72796C5.29152 2.76164 3.70014 1.9862 2 1.9862V4.4862ZM9.20929 9.04346C10.5364 10.2428 11.9459 11.5183 13.3716 12.4899C14.7888 13.4557 16.376 14.2316 18.0727 14.2522L18.1031 11.7523C17.1358 11.7406 16.0452 11.2866 14.7794 10.424C13.5221 9.56709 12.2433 8.41569 10.8855 7.18863L9.20929 9.04346ZM18.0879 1.86258C16.3823 1.86258 14.7875 2.66214 13.3719 3.65137C11.9452 4.64841 10.5305 5.96322 9.19742 7.1995L10.8974 9.03258C12.2625 7.7666 13.546 6.57968 14.804 5.70056C16.0732 4.81363 17.1494 4.36258 18.0879 4.36258V1.86258ZM9.19742 7.1995C7.83096 8.4667 6.54628 9.65519 5.28705 10.5357C4.01661 11.424 2.93931 11.8759 2 11.8759V14.3759C3.70697 14.3759 5.30311 13.575 6.71965 12.5845C8.1474 11.5862 9.56327 10.2698 10.8974 9.03258L9.19742 7.1995Z" fill="#1DB954"/>
</svg>
