<svg width="27" height="22" viewBox="0 0 27 22" fill="none" xmlns="http://www.w3.org/2000/svg">
<path d="M1 12.0149C1 7.04886 5.02574 3.02313 9.99174 3.02313H17.1851M25.7273 9.99172C25.7273 14.9577 21.7015 18.9835 16.7355 18.9835H9.54215M19.0926 4.81487L21 2.90744L19.0926 1M7.4033 17.1851L5.49587 19.0926L7.4033 21" stroke="#191414" stroke-width="2" stroke-linecap="round" stroke-linejoin="round"/>
<path d="M1 12.0149C1 7.04886 5.02574 3.02313 9.99174 3.02313H17.1851M25.7273 9.99172C25.7273 14.9577 21.7015 18.9835 16.7355 18.9835H9.54215M19.0926 4.81487L21 2.90744L19.0926 1M7.4033 17.1851L5.49587 19.0926L7.4033 21" stroke="#191414" stroke-width="2" stroke-linecap="round" stroke-linejoin="round"/>
</svg>
