<svg width="26" height="19" viewBox="0 0 26 19" fill="none" xmlns="http://www.w3.org/2000/svg">
<path d="M24.1301 3.32994L25.014 4.21382C25.2484 3.9794 25.3801 3.66146 25.3801 3.32994C25.3801 2.99842 25.2484 2.68047 25.014 2.44605L24.1301 3.32994ZM21.9163 3.77599C21.4282 4.26415 21.4282 5.0556 21.9163 5.54376C22.4045 6.03191 23.1959 6.03191 23.6841 5.54376L21.9163 3.77599ZM23.6841 1.11612C23.1959 0.627961 22.4045 0.627961 21.9163 1.11612C21.4282 1.60427 21.4282 2.39573 21.9163 2.88388L23.6841 1.11612ZM24.1082 15.681L24.9921 16.5649C25.4802 16.0768 25.4802 15.2853 24.9921 14.7972L24.1082 15.681ZM21.9053 16.1161C21.4172 16.6043 21.4172 17.3957 21.9053 17.8839C22.3935 18.372 23.185 18.372 23.6731 17.8839L21.9053 16.1161ZM23.6731 13.4782C23.185 12.99 22.3935 12.99 21.9053 13.4782C21.4172 13.9663 21.4172 14.7578 21.9053 15.246L23.6731 13.4782ZM2 2.29526C1.30964 2.29526 0.75 2.8549 0.75 3.54526C0.75 4.23561 1.30964 4.79526 2 4.79526V2.29526ZM21.7639 17.0027C22.4542 17.0112 23.0207 16.4585 23.0292 15.7682C23.0377 15.0779 22.485 14.5114 21.7947 14.5029L21.7639 17.0027ZM21.7793 4.64073C22.4697 4.64073 23.0293 4.08109 23.0293 3.39073C23.0293 2.70037 22.4697 2.14073 21.7793 2.14073V4.64073ZM2 14.6573C1.30964 14.6573 0.75 15.217 0.75 15.9073C0.75 16.5977 1.30964 17.1573 2 17.1573V14.6573ZM23.2463 2.44605L21.9163 3.77599L23.6841 5.54376L25.014 4.21382L23.2463 2.44605ZM21.9163 2.88388L23.2463 4.21382L25.014 2.44605L23.6841 1.11612L21.9163 2.88388ZM23.2243 14.7972L21.9053 16.1161L23.6731 17.8839L24.9921 16.5649L23.2243 14.7972ZM21.9053 15.246L23.2243 16.5649L24.9921 14.7972L23.6731 13.4782L21.9053 15.246ZM2 4.79526C3.25092 4.79526 4.63676 5.38664 6.21307 6.47869C7.77938 7.56381 9.3715 9.02502 11.0482 10.5655L12.7396 8.72458C11.096 7.21449 9.37196 5.6258 7.63677 4.42367C5.91158 3.22848 4.01059 2.29526 2 2.29526V4.79526ZM11.0482 10.5655C12.6833 12.0679 14.401 13.6476 16.1344 14.8486C17.8584 16.0431 19.7556 16.9779 21.7639 17.0027L21.7947 14.5029C20.5277 14.4873 19.1328 13.8847 17.5582 12.7937C15.9929 11.7091 14.4055 10.2552 12.7396 8.72458L11.0482 10.5655ZM21.7793 2.14073C19.7642 2.14073 17.86 3.1022 16.1376 4.32598C14.403 5.55842 12.679 7.18679 11.0364 8.73557L12.7514 10.5545C14.4261 8.97549 16.0195 7.47669 17.5856 6.36394C19.1639 5.24251 20.5437 4.64073 21.7793 4.64073V2.14073ZM11.0364 8.73557C9.36005 10.3161 7.7653 11.8169 6.19766 12.9313C4.61778 14.0545 3.23666 14.6573 2 14.6573V17.1573C4.01682 17.1573 5.92255 16.1943 7.6462 14.9689C9.38208 13.7348 11.1075 12.1045 12.7514 10.5545L11.0364 8.73557Z" fill="#191414"/>
<path d="M24.1301 3.32994L25.014 4.21382C25.2484 3.9794 25.3801 3.66146 25.3801 3.32994C25.3801 2.99842 25.2484 2.68047 25.014 2.44605L24.1301 3.32994ZM21.9163 3.77599C21.4282 4.26415 21.4282 5.0556 21.9163 5.54376C22.4045 6.03191 23.1959 6.03191 23.6841 5.54376L21.9163 3.77599ZM23.6841 1.11612C23.1959 0.627961 22.4045 0.627961 21.9163 1.11612C21.4282 1.60427 21.4282 2.39573 21.9163 2.88388L23.6841 1.11612ZM24.1082 15.681L24.9921 16.5649C25.4802 16.0768 25.4802 15.2853 24.9921 14.7972L24.1082 15.681ZM21.9053 16.1161C21.4172 16.6043 21.4172 17.3957 21.9053 17.8839C22.3935 18.372 23.185 18.372 23.6731 17.8839L21.9053 16.1161ZM23.6731 13.4782C23.185 12.99 22.3935 12.99 21.9053 13.4782C21.4172 13.9663 21.4172 14.7578 21.9053 15.246L23.6731 13.4782ZM2 2.29526C1.30964 2.29526 0.75 2.8549 0.75 3.54526C0.75 4.23561 1.30964 4.79526 2 4.79526V2.29526ZM21.7639 17.0027C22.4542 17.0112 23.0207 16.4585 23.0292 15.7682C23.0377 15.0779 22.485 14.5114 21.7947 14.5029L21.7639 17.0027ZM21.7793 4.64073C22.4697 4.64073 23.0293 4.08109 23.0293 3.39073C23.0293 2.70037 22.4697 2.14073 21.7793 2.14073V4.64073ZM2 14.6573C1.30964 14.6573 0.75 15.217 0.75 15.9073C0.75 16.5977 1.30964 17.1573 2 17.1573V14.6573ZM23.2463 2.44605L21.9163 3.77599L23.6841 5.54376L25.014 4.21382L23.2463 2.44605ZM21.9163 2.88388L23.2463 4.21382L25.014 2.44605L23.6841 1.11612L21.9163 2.88388ZM23.2243 14.7972L21.9053 16.1161L23.6731 17.8839L24.9921 16.5649L23.2243 14.7972ZM21.9053 15.246L23.2243 16.5649L24.9921 14.7972L23.6731 13.4782L21.9053 15.246ZM2 4.79526C3.25092 4.79526 4.63676 5.38664 6.21307 6.47869C7.77938 7.56381 9.3715 9.02502 11.0482 10.5655L12.7396 8.72458C11.096 7.21449 9.37196 5.6258 7.63677 4.42367C5.91158 3.22848 4.01059 2.29526 2 2.29526V4.79526ZM11.0482 10.5655C12.6833 12.0679 14.401 13.6476 16.1344 14.8486C17.8584 16.0431 19.7556 16.9779 21.7639 17.0027L21.7947 14.5029C20.5277 14.4873 19.1328 13.8847 17.5582 12.7937C15.9929 11.7091 14.4055 10.2552 12.7396 8.72458L11.0482 10.5655ZM21.7793 2.14073C19.7642 2.14073 17.86 3.1022 16.1376 4.32598C14.403 5.55842 12.679 7.18679 11.0364 8.73557L12.7514 10.5545C14.4261 8.97549 16.0195 7.47669 17.5856 6.36394C19.1639 5.24251 20.5437 4.64073 21.7793 4.64073V2.14073ZM11.0364 8.73557C9.36005 10.3161 7.7653 11.8169 6.19766 12.9313C4.61778 14.0545 3.23666 14.6573 2 14.6573V17.1573C4.01682 17.1573 5.92255 16.1943 7.6462 14.9689C9.38208 13.7348 11.1075 12.1045 12.7514 10.5545L11.0364 8.73557Z" fill="#F1F1F1"/>
<path d="M24.1301 3.32994L25.014 4.21382C25.2484 3.9794 25.3801 3.66146 25.3801 3.32994C25.3801 2.99842 25.2484 2.68047 25.014 2.44605L24.1301 3.32994ZM21.9163 3.77599C21.4282 4.26415 21.4282 5.0556 21.9163 5.54376C22.4045 6.03191 23.1959 6.03191 23.6841 5.54376L21.9163 3.77599ZM23.6841 1.11612C23.1959 0.627961 22.4045 0.627961 21.9163 1.11612C21.4282 1.60427 21.4282 2.39573 21.9163 2.88388L23.6841 1.11612ZM24.1082 15.681L24.9921 16.5649C25.4802 16.0768 25.4802 15.2853 24.9921 14.7972L24.1082 15.681ZM21.9053 16.1161C21.4172 16.6043 21.4172 17.3957 21.9053 17.8839C22.3935 18.372 23.185 18.372 23.6731 17.8839L21.9053 16.1161ZM23.6731 13.4782C23.185 12.99 22.3935 12.99 21.9053 13.4782C21.4172 13.9663 21.4172 14.7578 21.9053 15.246L23.6731 13.4782ZM2 2.29526C1.30964 2.29526 0.75 2.8549 0.75 3.54526C0.75 4.23561 1.30964 4.79526 2 4.79526V2.29526ZM21.7639 17.0027C22.4542 17.0112 23.0207 16.4585 23.0292 15.7682C23.0377 15.0779 22.485 14.5114 21.7947 14.5029L21.7639 17.0027ZM21.7793 4.64073C22.4697 4.64073 23.0293 4.08109 23.0293 3.39073C23.0293 2.70037 22.4697 2.14073 21.7793 2.14073V4.64073ZM2 14.6573C1.30964 14.6573 0.75 15.217 0.75 15.9073C0.75 16.5977 1.30964 17.1573 2 17.1573V14.6573ZM23.2463 2.44605L21.9163 3.77599L23.6841 5.54376L25.014 4.21382L23.2463 2.44605ZM21.9163 2.88388L23.2463 4.21382L25.014 2.44605L23.6841 1.11612L21.9163 2.88388ZM23.2243 14.7972L21.9053 16.1161L23.6731 17.8839L24.9921 16.5649L23.2243 14.7972ZM21.9053 15.246L23.2243 16.5649L24.9921 14.7972L23.6731 13.4782L21.9053 15.246ZM2 4.79526C3.25092 4.79526 4.63676 5.38664 6.21307 6.47869C7.77938 7.56381 9.3715 9.02502 11.0482 10.5655L12.7396 8.72458C11.096 7.21449 9.37196 5.6258 7.63677 4.42367C5.91158 3.22848 4.01059 2.29526 2 2.29526V4.79526ZM11.0482 10.5655C12.6833 12.0679 14.401 13.6476 16.1344 14.8486C17.8584 16.0431 19.7556 16.9779 21.7639 17.0027L21.7947 14.5029C20.5277 14.4873 19.1328 13.8847 17.5582 12.7937C15.9929 11.7091 14.4055 10.2552 12.7396 8.72458L11.0482 10.5655ZM21.7793 2.14073C19.7642 2.14073 17.86 3.1022 16.1376 4.32598C14.403 5.55842 12.679 7.18679 11.0364 8.73557L12.7514 10.5545C14.4261 8.97549 16.0195 7.47669 17.5856 6.36394C19.1639 5.24251 20.5437 4.64073 21.7793 4.64073V2.14073ZM11.0364 8.73557C9.36005 10.3161 7.7653 11.8169 6.19766 12.9313C4.61778 14.0545 3.23666 14.6573 2 14.6573V17.1573C4.01682 17.1573 5.92255 16.1943 7.6462 14.9689C9.38208 13.7348 11.1075 12.1045 12.7514 10.5545L11.0364 8.73557Z" fill="#1DB954"/>
</svg>
